# xmcd
#
# Track frame offsets: 
#        150
#        15053
#        37366
#        56233
#        75290
#        92684
#        122974
#        140186
#        168142
#        185094
#
# Disc length: 2799 seconds
#
# Revision: 5
# Processed by: cddbd v1.5.2PL0 Copyright (c) Steve Scherf et al.
# Submitted via: ExactAudioCopy v1.1
#
DISCID=830aed0a
DTITLE=Toots Thielemans - Philip Catherine and Friends - Two Generatio
DTITLE=ns
DYEAR=1974
DGENRE=Jazz Rock
TTITLE0=Bluesette
TTITLE1=Be Be Creole
TTITLE2=Monologue
TTITLE3=Two Generations
TTITLE4=Why Did I Choose You
TTITLE5=Uncle Charlie
TTITLE6=Friday Night
TTITLE7=T.T.
TTITLE8=Inner Journey
TTITLE9=L'eternal Mari
EXTD=YEAR: 1996
EXTT0=
EXTT1=
EXTT2=
EXTT3=
EXTT4=
EXTT5=
EXTT6=
EXTT7=
EXTT8=
EXTT9=
PLAYORDER=
